<svg xmlns:xlink="http://www.w3.org/1999/xlink" width="37.5" xmlns="http://www.w3.org/2000/svg" height="37.5" id="screenshot-041c5497-2245-80b3-8004-0e58d26ed891" viewBox="-0.75 -0.75 37.5 37.5" style="-webkit-print-color-adjust: exact;" fill="none" version="1.1"><g id="shape-041c5497-2245-80b3-8004-0e58d26ed891" class="w-6 h-6" rx="0" ry="0" style="fill: rgb(0, 0, 0);"><g id="shape-041c5497-2245-80b3-8004-0e58d2732c45"><g class="fills" id="fills-041c5497-2245-80b3-8004-0e58d2732c45"><path fill="none" stroke-linecap="round" stroke-linejoin="round" rx="0" ry="0" d="M22.110,13.500L21.591,27.000M14.409,27.000L13.890,13.500M28.842,8.685C29.355,8.763,29.865,8.845,30.375,8.934M28.842,8.686L27.240,29.510C27.104,31.268,25.638,32.626,23.874,32.625L12.126,32.625C10.362,32.626,8.896,31.268,8.760,29.510L7.158,8.685M28.842,8.685C27.111,8.423,25.371,8.225,23.625,8.090M5.625,8.932C6.135,8.844,6.645,8.761,7.158,8.685M7.158,8.685C8.889,8.423,10.629,8.225,12.375,8.090M23.625,8.090L23.625,6.716C23.625,4.946,22.260,3.470,20.490,3.414C18.830,3.361,17.170,3.361,15.510,3.414C13.740,3.470,12.375,4.947,12.375,6.716L12.375,8.090M23.625,8.090C19.881,7.800,16.119,7.800,12.375,8.090" style="fill: none;"/></g><g id="strokes-041c5497-2245-80b3-8004-0e58d2732c45" class="strokes"><g class="stroke-shape"><path stroke-linecap="round" stroke-linejoin="round" rx="0" ry="0" d="M22.110,13.500L21.591,27.000M14.409,27.000L13.890,13.500M28.842,8.685C29.355,8.763,29.865,8.845,30.375,8.934M28.842,8.686L27.240,29.510C27.104,31.268,25.638,32.626,23.874,32.625L12.126,32.625C10.362,32.626,8.896,31.268,8.760,29.510L7.158,8.685M28.842,8.685C27.111,8.423,25.371,8.225,23.625,8.090M5.625,8.932C6.135,8.844,6.645,8.761,7.158,8.685M7.158,8.685C8.889,8.423,10.629,8.225,12.375,8.090M23.625,8.090L23.625,6.716C23.625,4.946,22.260,3.470,20.490,3.414C18.830,3.361,17.170,3.361,15.510,3.414C13.740,3.470,12.375,4.947,12.375,6.716L12.375,8.090M23.625,8.090C19.881,7.800,16.119,7.800,12.375,8.090" style="fill: none; stroke-width: 1.5; stroke: rgb(59, 52, 54); stroke-opacity: 1;"/></g></g></g></g></svg>