<svg xmlns:xlink="http://www.w3.org/1999/xlink" width="37.5" xmlns="http://www.w3.org/2000/svg" height="37.5" id="screenshot-041c5497-2245-80b3-8004-0e580c39aa6a" viewBox="-0.75 -0.75 37.5 37.5" style="-webkit-print-color-adjust: exact;" fill="none" version="1.1"><g id="shape-041c5497-2245-80b3-8004-0e580c39aa6a" class="w-6 h-6" rx="0" ry="0" style="fill: rgb(0, 0, 0);"><g id="shape-041c5497-2245-80b3-8004-0e580c415728"><g class="fills" id="fills-041c5497-2245-80b3-8004-0e580c415728"><path fill="none" stroke-linecap="round" stroke-linejoin="round" rx="0" ry="0" d="M18.000,4.000L18.000,32.000M11.000,25.425L13.051,26.962C15.783,29.013,20.214,29.013,22.949,26.962C25.684,24.911,25.684,21.589,22.949,19.538C21.584,18.511,19.792,18.000,18.000,18.000C16.308,18.000,14.617,17.487,13.326,16.462C10.746,14.411,10.746,11.089,13.326,9.038C15.907,6.987,20.093,6.987,22.674,9.038L23.642,9.808" style="fill: none;"/></g><g id="strokes-041c5497-2245-80b3-8004-0e580c415728" class="strokes"><g class="stroke-shape"><path stroke-linecap="round" stroke-linejoin="round" rx="0" ry="0" d="M18.000,4.000L18.000,32.000M11.000,25.425L13.051,26.962C15.783,29.013,20.214,29.013,22.949,26.962C25.684,24.911,25.684,21.589,22.949,19.538C21.584,18.511,19.792,18.000,18.000,18.000C16.308,18.000,14.617,17.487,13.326,16.462C10.746,14.411,10.746,11.089,13.326,9.038C15.907,6.987,20.093,6.987,22.674,9.038L23.642,9.808" style="fill: none; stroke-width: 1.5; stroke: rgb(59, 52, 54); stroke-opacity: 1;"/></g></g></g></g></svg>